<svg width="32" height="32" viewBox="0 0 32 32" fill="none" xmlns="http://www.w3.org/2000/svg">
<g clip-path="url(#clip0)">
<path d="M31.9986 16.0976C31.9986 7.20556 24.8346 -0.00244141 15.9986 -0.00244141C7.15863 -0.000441406 -0.00537109 7.20556 -0.00537109 16.0996C-0.00537109 24.1336 5.84663 30.7936 13.4946 32.0016V20.7516H9.43463V16.0996H13.4986V12.5496C13.4986 8.51556 15.8886 6.28756 19.5426 6.28756C21.2946 6.28756 23.1246 6.60156 23.1246 6.60156V10.5616H21.1066C19.1206 10.5616 18.5006 11.8036 18.5006 13.0776V16.0976H22.9366L22.2286 20.7496H18.4986V31.9996C26.1466 30.7916 31.9986 24.1316 31.9986 16.0976Z" fill="black"/>
</g>
<defs>
<clipPath id="clip0">
<rect width="32" height="32" fill="white"/>
</clipPath>
</defs>
</svg>
